 http://desibbrg.org/images/66952052392581364616.gif 
http://desibbrg.org/images/08258638244256201323.jpg 
http://desibbrg.org/images/29204826899578824139.png 
http://desibbrg.org/images/03524513277540524422.png 
http://desibbrg.org/images/28515078889757386807.png 
http://desibbrg.org/images/90266322941815657280.png 
http://desibbrg.org/images/03442398224564841234.png

Media Info - 
Video
ID                             : 1
Format                         : AVC
Format/Info                    : Advanced Video Codec
Format profile                 : Main@L3.0
Format settings, CABAC         : Yes
Format settings, ReFrames      : 4 frames
Codec ID                       : avc1
Codec ID/Info                  : Advanced Video Coding
Duration                       : 2h 11mn
Bit rate mode                  : Variable
Bit rate                       : 679 Kbps
Width                          : 640 pixels
Height                         : 310 pixels
Display aspect ratio           : 2.065
Frame rate mode                : Variable
Frame rate                     : 29.970 fps
Minimum frame rate             : 29.412 fps
Maximum frame rate             : 30.303 fps
Color space                    : YUV
Chroma subsampling             : 4:2:0
Bit depth                      : 8 bits
Scan type                      : Progressive
Bits/(Pixel*Frame)             : 0.114
Stream size                    : 641 MiB (82%)
Writing library                : x264 core 120
Color primaries                : BT.601 NTSC
Transfer characteristics       : BT.709
Matrix coefficients            : BT.601

Audio
ID                             : 2
Format                         : AAC
Format/Info                    : Advanced Audio Codec
Format profile                 : LC
Codec ID                       : 40
Duration                       : 2h 11mn
Bit rate mode                  : Variable
Bit rate                       : 144 Kbps
Maximum bit rate               : 179 Kbps
Channel(s)                     : 2 channels
Channel positions              : Front: L R
Sampling rate                  : 44.1 KHz
Compression mode               : Lossy
Delay relative to video        : 67ms
Stream size                    : 135 MiB (17%)

Sample - http://filesflash.com/p4sywcgh

Ripper : SaketSaket

Seeding 24x7... Extreme Seeding...


Enjoy!
